<svg xmlns="http://www.w3.org/2000/svg" width="296" height="296" viewBox="0 0 35 35" shape-rendering="crispEdges"><path fill="#ffffff" d="M0 0h35v35H0z"/><path stroke="#000000" d="M3 3.5h7m2 0h1m1 0h3m2 0h4m2 0h7M3 4.5h1m5 0h1m3 0h1m2 0h1m1 0h1m1 0h1m2 0h1m1 0h1m5 0h1M3 5.5h1m1 0h3m1 0h1m1 0h1m2 0h2m7 0h1m1 0h1m1 0h3m1 0h1M3 6.5h1m1 0h3m1 0h1m1 0h1m1 0h1m2 0h5m4 0h1m1 0h3m1 0h1M3 7.5h1m1 0h3m1 0h1m1 0h1m3 0h1m3 0h5m1 0h1m1 0h3m1 0h1M3 8.5h1m5 0h1m1 0h2m1 0h1m3 0h4m3 0h1m5 0h1M3 9.5h7m1 0h1m1 0h1m1 0h1m1 0h1m1 0h1m1 0h1m1 0h1m1 0h7M11 10.5h2m2 0h1m1 0h2m4 0h1M3 11.5h1m1 0h5m2 0h1m1 0h1m4 0h2m2 0h1m1 0h5M3 12.5h1m3 0h2m1 0h1m5 0h1m2 0h7m1 0h1m3 0h1M6 13.5h4m2 0h9m2 0h1m1 0h3M3 14.5h3m4 0h1m2 0h1m1 0h2m7 0h2m1 0h2m1 0h1M3 15.5h3m1 0h1m1 0h2m1 0h1m2 0h1m1 0h4m1 0h1m5 0h2M5 16.5h4m3 0h1m2 0h1m3 0h1m2 0h6m3 0h1M4 17.5h1m1 0h1m1 0h3m1 0h3m3 0h4m2 0h1m3 0h2M5 18.5h1m1 0h1m2 0h2m2 0h1m2 0h2m3 0h2m1 0h1m1 0h1m2 0h1M4 19.5h2m2 0h3m1 0h1m1 0h2m2 0h1m1 0h1m2 0h1m2 0h1m1 0h2M3 20.5h2m2 0h1m2 0h1m1 0h6m1 0h9m1 0h1m1 0h1M3 21.5h1m5 0h1m1 0h1m2 0h1m1 0h3m1 0h2m3 0h2m2 0h1M3 22.5h1m2 0h3m2 0h2m1 0h3m5 0h2m1 0h2m3 0h1M3 23.5h1m1 0h1m3 0h4m1 0h1m2 0h1m2 0h1m1 0h6m1 0h3M11 24.5h1m3 0h1m3 0h3m1 0h1m3 0h5M3 25.5h7m4 0h1m3 0h1m2 0h3m1 0h1m1 0h3M3 26.5h1m5 0h1m1 0h1m1 0h3m1 0h1m1 0h1m2 0h2m3 0h1m2 0h2M3 27.5h1m1 0h3m1 0h1m1 0h5m4 0h1m2 0h5m1 0h1M3 28.5h1m1 0h3m1 0h1m1 0h1m2 0h1m2 0h1m1 0h4m1 0h1m3 0h4M3 29.5h1m1 0h3m1 0h1m1 0h2m2 0h6m2 0h8M3 30.5h1m5 0h1m3 0h1m4 0h2m1 0h1m1 0h1m1 0h1m2 0h1m1 0h1M3 31.5h7m1 0h1m1 0h1m1 0h2m1 0h1m1 0h1m1 0h1m2 0h1m2 0h2"/></svg>
